# xmcd
#
# Track frame offsets:
#	150
#	14716
#	31492
#	43991
#	55483
#	71348
#	80277
#	93601
#	106194
#	118282
#	141202
#	153395
#	165900
#	177494
#	190745
#	214566
#
# Disc length: 3030 seconds
#
# Revision: 1
# Processed by: cddbd v1.5.2PL0 Copyright (c) Steve Scherf et al.
# Submitted via: audiograbber 1.83.01
#
DISCID=df0bd410
DTITLE=B.B. King - B.B. King and Friends [CD 1)
DYEAR=2007
DGENRE=Blues
TTITLE0=B.B. Boogie
TTITLE1=The Other Night Blues
TTITLE2=From The Bottom (Sonny Boy Williamson)
TTITLE3=City Of New Orleans (Sonny Boy Williamson)
TTITLE4=Walkin' And Cryin'
TTITLE5=A New Way Of Driving
TTITLE6=Catfish Blues (Bobo 'Slim' Thomas)
TTITLE7=Dirty Disposition (Luther Huff)
TTITLE8=1951 Blues (Luther Huff)
TTITLE9=Every Day I Have The Blues
TTITLE10=Delta Blues (Big Joe Williams And His 9 String Guitar)
TTITLE11=Mama Don't Allow Me (Big Joe Williams And His 9 String Guitar)
TTITLE12=Whistling Pines (Big Joe Williams And His 9 String Guitar)
TTITLE13=You Got To Move (Mississippi Fred McDowell)
TTITLE14=You Done Lost Your Good Thing Now
TTITLE15=Please Love Me
EXTD=
EXTT0=
EXTT1=
EXTT2=
EXTT3=
EXTT4=
EXTT5=
EXTT6=
EXTT7=
EXTT8=
EXTT9=
EXTT10=
EXTT11=
EXTT12=
EXTT13=
EXTT14=
EXTT15=
PLAYORDER=
